<svg aria-hidden="true" style="width:0;height:0;position:absolute;overflow:hidden" xmlns="http://www.w3.org/2000/svg"><defs><symbol id="icon-moon" viewBox="0 0 24 24"><path d="M21.996 12.882a1 1 0 0 0-1.585-.9 6.11 6.11 0 0 1-3.188 1.162 5.948 5.948 0 0 1-3.95-1.158c-1.333-.985-2.139-2.415-2.367-3.935s.124-3.124 1.109-4.456a.998.998 0 0 0-.901-1.589 10.082 10.082 0 0 0-5.895 2.651 9.943 9.943 0 0 0-3.137 6.386c-.254 2.749.631 5.343 2.266 7.311s4.022 3.313 6.772 3.567 5.343-.631 7.311-2.266 3.313-4.022 3.567-6.772zm-2.429 1.792a7.988 7.988 0 0 1-2.416 3.441c-1.576 1.309-3.648 2.016-5.848 1.813s-4.108-1.278-5.417-2.854-2.016-3.648-1.813-5.848A7.932 7.932 0 0 1 6.58 6.12a8.058 8.058 0 0 1 2.731-1.672 8.008 8.008 0 0 0 2.772 9.146 7.94 7.94 0 0 0 5.272 1.545 8.083 8.083 0 0 0 2.21-.465z"/></symbol><symbol id="icon-sun" viewBox="0 0 24 24"><path d="M18 12c0-1.657-.673-3.158-1.757-4.243S13.657 6 12 6s-3.158.673-4.243 1.757S6 10.343 6 12s.673 3.158 1.757 4.243S10.343 18 12 18s3.158-.673 4.243-1.757S18 13.657 18 12zm-2 0c0 1.105-.447 2.103-1.172 2.828S13.105 16 12 16s-2.103-.447-2.828-1.172S8 13.105 8 12s.447-2.103 1.172-2.828S10.895 8 12 8s2.103.447 2.828 1.172S16 10.895 16 12zM11 1v2a1 1 0 0 0 2 0V1a1 1 0 0 0-2 0zm0 20v2a1 1 0 0 0 2 0v-2a1 1 0 0 0-2 0zM3.513 4.927l1.42 1.42a.999.999 0 1 0 1.414-1.414l-1.42-1.42a.999.999 0 1 0-1.414 1.414zm14.14 14.14 1.42 1.42a.999.999 0 1 0 1.414-1.414l-1.42-1.42a.999.999 0 1 0-1.414 1.414zM1 13h2a1 1 0 0 0 0-2H1a1 1 0 0 0 0 2zm20 0h2a1 1 0 0 0 0-2h-2a1 1 0 0 0 0 2zM4.927 20.487l1.42-1.42a.999.999 0 1 0-1.414-1.414l-1.42 1.42a.999.999 0 1 0 1.414 1.414zm14.14-14.14 1.42-1.42a.999.999 0 1 0-1.414-1.414l-1.42 1.42a.999.999 0 1 0 1.414 1.414z"/></symbol></defs></svg>